<svg width="669" height="55" viewBox="0 0 669 55" fill="none" xmlns="http://www.w3.org/2000/svg">
<path d="M52.3001 38.0114C51.1178 42.767 48.9175 46.5214 45.7011 49.2736C42.4828 52.0281 38.9054 53.4038 34.9641 53.4038H25.5101V32.1922H33.0944C35.9825 32.1922 38.3293 33.1003 40.1356 34.9141C41.9404 36.73 42.8445 39.0134 42.8445 41.7658V42.1408H43.8291V17.9262H42.8445V18.1146C42.8445 20.9304 41.9404 23.2293 40.1356 25.0127C38.3293 26.7959 35.9825 27.7193 33.0944 27.782H25.5101V5.72611H35.6549C39.3313 5.78808 42.1701 6.82052 44.1741 8.82307C46.1767 10.8252 47.1787 13.641 47.1787 17.2692V17.7395H48.1633V0C47.3742 0.314322 45.9626 0.626233 43.9281 0.939305C41.8926 1.25247 40.0525 1.40757 38.412 1.40757H0V2.34607H1.08363C2.46219 2.34607 3.65935 2.81577 4.67882 3.75365C5.69639 4.69367 6.205 5.88264 6.205 7.32102V51.9021C6.205 52.8662 5.86371 53.7803 5.22118 54.6515L50.9296 54.1409L53.186 38.0114H52.3001Z" fill="black"/>
<path d="M118.586 26.7484L132.867 6.28772C134.901 3.53535 137.528 2.15787 140.746 2.15787H141.928V1.22017H120.654V2.15787H121.639C122.821 2.15787 123.658 2.53336 124.15 3.28496C124.643 4.03585 124.889 4.67771 124.889 5.20804C124.889 5.74051 124.724 6.28772 124.396 6.85055L114.843 21.0222L105.782 6.85055C105.125 5.85106 105.125 4.78567 105.782 3.66C106.438 2.65944 107.39 2.15787 108.638 2.15787H109.623V1.22017H74.6583V2.15787H75.7417C77.2507 2.15787 78.7288 2.55005 80.1741 3.33131C81.6164 4.11497 82.7673 5.0682 83.6204 6.19378L99.6751 31.3463L82.8326 52.8394C82.535 53.18 82.2311 53.4964 81.9237 53.7935L91.3117 53.6882C91.3217 53.1706 91.5104 52.6375 91.8938 52.0885L103.32 36.9785L112.971 52.0885C113.257 52.5279 113.397 52.9797 113.434 53.4408L135.648 53.1922C135.469 52.9853 135.29 52.7785 135.133 52.5578L118.586 26.7484Z" fill="black"/>
<path d="M278.141 6.94429C278.141 5.63065 278.666 4.5374 279.718 3.66042C280.767 2.78443 282.048 2.34518 283.558 2.34518H285.233V1.40668H251.745V2.34518H253.421C254.93 2.34518 256.194 2.80077 257.212 3.70757C258.23 4.61491 258.738 5.72522 258.738 7.03894V33.4111L217.471 0.187256H216.584L216.881 1.2197C217.471 3.41066 217.766 6.38226 217.766 10.1358V52.0885C217.766 52.1534 217.749 52.2113 217.747 52.2747L237.071 52.0589V25.7163L269.51 51.6963L278.204 51.5993C278.163 50.6721 278.141 49.6805 278.141 48.6154V6.94429Z" fill="black"/>
<path d="M336.25 4.69282C337.167 3.12996 338.613 2.34532 340.584 2.34532H341.569V1.40744H310.05V2.34532H311.134C312.513 2.34532 313.694 2.81492 314.679 3.75351C315.666 4.69282 316.156 5.85144 316.156 7.22597V51.1756L335.462 50.9596V7.22597C335.526 6.288 335.789 5.44371 336.25 4.69282Z" fill="black"/>
<path d="M431.936 3.70788C432.953 2.80153 434.184 2.34532 435.63 2.34532H436.714V1.40744H404.998V2.34532H405.983C407.427 2.34532 408.643 2.81492 409.627 3.75351C410.613 4.69282 411.138 5.85144 411.203 7.22597V27.3116H391.997V7.22597C392.061 5.85144 392.588 4.69282 393.574 3.75351C394.558 2.81492 395.772 2.34532 397.218 2.34532H398.202V1.40744H366.488V2.34532H367.572C368.95 2.34532 370.147 2.81492 371.166 3.75351C372.183 4.69282 372.692 5.85144 372.692 7.22597V50.5442L391.997 50.3283V31.6293H411.203V50.1131L430.409 49.8986V7.22597C430.409 5.78803 430.917 4.61531 431.936 3.70788Z" fill="black"/>
<path d="M487.533 4.69282C488.45 3.12996 489.896 2.34532 491.866 2.34532H492.851V1.40744H461.333V2.34532H462.417C463.795 2.34532 464.978 2.81492 465.962 3.75351C466.948 4.69282 467.44 5.85144 467.44 7.22597V49.4846L486.745 49.2687V7.22597C486.809 6.288 487.072 5.44371 487.533 4.69282Z" fill="black"/>
<path d="M570.069 38.0123C568.947 42.2882 567.035 45.7462 564.348 48.4027L569.556 48.3449L571.053 38.0123H570.069Z" fill="black"/>
<path d="M543.773 5.25565C544.625 3.31686 546.202 2.34603 548.5 2.34603H549.584V1.40744H517.771V2.34603H518.854C520.233 2.34603 521.43 2.81492 522.45 3.75351C523.466 4.69282 523.975 5.85144 523.975 7.22597V48.8525L543.28 48.6374V7.22597C543.28 6.53884 543.442 5.8818 543.773 5.25565Z" fill="black"/>
<path d="M658.956 7.97722C652.619 2.84707 643.821 0.280884 632.56 0.280884C621.299 0.280884 612.501 2.84707 606.165 7.97722C599.828 13.108 596.66 20.3049 596.66 29.5646C596.66 37.0607 598.773 43.18 602.926 47.97L620.61 47.7723C618.044 43.4426 616.753 37.383 616.753 29.5646C616.753 21.5559 618.098 15.3772 620.79 11.027C623.483 6.68019 627.39 4.50485 632.511 4.50485C635.925 4.50485 638.815 5.50622 641.179 7.50877C645.905 11.4493 648.271 18.8332 648.271 29.6573C648.271 37.2598 647.024 43.1956 644.561 47.5052L662.777 47.3015C666.552 42.6146 668.461 36.7104 668.461 29.5646C668.461 20.3049 665.292 13.108 658.956 7.97722Z" fill="black"/>
</svg>
